<svg width="22" height="22" viewBox="0 0 22 22" fill="none" xmlns="http://www.w3.org/2000/svg">
<path d="M0 5C0 2.23858 2.23858 0 5 0H17C19.7614 0 22 2.23858 22 5V17C22 19.7614 19.7614 22 17 22H5C2.23858 22 0 19.7614 0 17V5Z" fill="#FF0084"/>
<path d="M10.8409 8.11312L7.00016 12.181V16.5714C7.00016 16.6851 7.03527 16.7941 7.09778 16.8745C7.16029 16.9548 7.24507 17 7.33347 17L9.66787 16.9922C9.75598 16.9917 9.84033 16.9463 9.90248 16.8659C9.96462 16.7856 9.99951 16.6769 9.99951 16.5636V13.9997C9.99951 13.886 10.0346 13.777 10.0971 13.6966C10.1596 13.6162 10.2444 13.571 10.3328 13.571H11.666C11.7544 13.571 11.8392 13.6162 11.9017 13.6966C11.9642 13.777 11.9994 13.886 11.9994 13.9997V16.5617C11.9992 16.6181 12.0077 16.674 12.0244 16.7262C12.0411 16.7783 12.0656 16.8257 12.0966 16.8657C12.1276 16.9056 12.1644 16.9373 12.2049 16.9589C12.2454 16.9806 12.2888 16.9917 12.3327 16.9917L14.6662 17C14.7546 17 14.8394 16.9548 14.9019 16.8745C14.9644 16.7941 14.9995 16.6851 14.9995 16.5714V12.178L11.1596 8.11312C11.1145 8.06632 11.0582 8.0408 11.0003 8.0408C10.9423 8.0408 10.886 8.06632 10.8409 8.11312ZM16.9077 10.878L15.1662 9.03197V5.32146C15.1662 5.23621 15.1399 5.15444 15.093 5.09415C15.0461 5.03387 14.9825 5 14.9162 5H13.7496C13.6833 5 13.6198 5.03387 13.5729 5.09415C13.526 5.15444 13.4997 5.23621 13.4997 5.32146V7.26659L11.6346 5.29334C11.4556 5.10393 11.231 5.00038 10.9992 5.00038C10.7674 5.00038 10.5428 5.10393 10.3639 5.29334L5.09072 10.878C5.06541 10.9049 5.04447 10.9379 5.02909 10.9753C5.01372 11.0126 5.00421 11.0534 5.00111 11.0955C4.99802 11.1375 5.00139 11.1799 5.01105 11.2203C5.02071 11.2606 5.03645 11.2982 5.05739 11.3307L5.5886 12.1612C5.60948 12.1938 5.63516 12.2208 5.66418 12.2407C5.69319 12.2606 5.72497 12.2729 5.75769 12.2769C5.79041 12.281 5.82343 12.2767 5.85486 12.2643C5.88629 12.252 5.91552 12.2317 5.94086 12.2048L10.8409 7.01478C10.886 6.96799 10.9423 6.94247 11.0003 6.94247C11.0582 6.94247 11.1145 6.96799 11.1596 7.01478L16.0599 12.2048C16.0852 12.2317 16.1144 12.252 16.1457 12.2644C16.1771 12.2768 16.2101 12.2812 16.2428 12.2772C16.2755 12.2732 16.3073 12.261 16.3363 12.2412C16.3653 12.2214 16.391 12.1945 16.4119 12.162L16.9431 11.3315C16.9641 11.2988 16.9797 11.2611 16.9893 11.2205C16.9988 11.18 17.002 11.1374 16.9987 11.0953C16.9955 11.0531 16.9857 11.0122 16.9701 10.9749C16.9545 10.9377 16.9333 10.9047 16.9077 10.878Z" fill="#FFE4F2"/>
</svg>
