<svg width="22" height="22" viewBox="0 0 22 22" fill="none" xmlns="http://www.w3.org/2000/svg">
<path d="M0 5C0 2.23858 2.23858 0 5 0H17C19.7614 0 22 2.23858 22 5V17C22 19.7614 19.7614 22 17 22H5C2.23858 22 0 19.7614 0 17V5Z" fill="#149954"/>
<path d="M11 11.75C12.8633 11.75 14.375 10.2383 14.375 8.375C14.375 6.51172 12.8633 5 11 5C9.13672 5 7.625 6.51172 7.625 8.375C7.625 10.2383 9.13672 11.75 11 11.75ZM14 12.5H12.7086C12.1883 12.7391 11.6094 12.875 11 12.875C10.3906 12.875 9.81406 12.7391 9.29141 12.5H8C6.34297 12.5 5 13.843 5 15.5V15.875C5 16.4961 5.50391 17 6.125 17H15.875C16.4961 17 17 16.4961 17 15.875V15.5C17 13.843 15.657 12.5 14 12.5Z" fill="#CEEBDC"/>
</svg>
