<svg width="22" height="22" viewBox="0 0 22 22" fill="none" xmlns="http://www.w3.org/2000/svg">
<path d="M0 5C0 2.23858 2.23858 0 5 0H17C19.7614 0 22 2.23858 22 5V17C22 19.7614 19.7614 22 17 22H5C2.23858 22 0 19.7614 0 17V5Z" fill="black"/>
<path d="M12.5 13.1429C12.5 13.3796 12.3322 13.5714 12.125 13.5714H9.875C9.66781 13.5714 9.5 13.3796 9.5 13.1429V11.8571H5V15.7143C5 16.4 5.525 17 6.125 17H15.875C16.475 17 17 16.4 17 15.7143V11.8571H12.5V13.1429ZM15.875 7.57143H14V6.28571C14 5.6 13.475 5 12.875 5H9.125C8.525 5 8 5.6 8 6.28571V7.57143H6.125C5.525 7.57143 5 8.17143 5 8.85714V11H17V8.85714C17 8.17143 16.475 7.57143 15.875 7.57143ZM12.5 7.57143H9.5V6.71429H12.5V7.57143Z" fill="white"/>
</svg>
